# xmcd CD database file
#
# Track frame offsets:
#	150
#	25042
#	40855
#	57514
#
# Disc length: 1096 seconds
#
# Revision: 0
# Processed by: cddbd v1.5.1PL0 Copyright (c) Steve Scherf et al.
# Submitted via: CDex 1.60beta1
#
DISCID=2b044604
DTITLE=高木ブー - 僕の大好きな場所
DYEAR=1999
DGENRE=Pop
TTITLE0=僕の大好きな場所
TTITLE1=Blue Memory
TTITLE2=Hau'oli la hanau
TTITLE3=僕の大好きな場所 -Backing Track-
EXTD=YEAR: 1999
EXTT0=
EXTT1=
EXTT2=
EXTT3=
PLAYORDER=
